# xmcd CD database file
#
# Track frame offsets:
#	150
#	15269
#	30424
#	48167
#	63828
#	77793
#	92850
#	109317
#	125488
#	141731
#	156686
#	171223
#	187137
#	200861
#
# Disc length: 2908 seconds
#
# Revision: 0
# Processed by: cddbd v1.5.1PL0 Copyright (c) Steve Scherf et al.
# Submitted via: CDex 1.51
#
DISCID=cb0b5a0e
DTITLE=倉木麻衣 - Love,Day After Tomorrow -Orgel Sound Version-
DYEAR=2000
DGENRE=JPop
TTITLE0=NEVER GONNA GIVE YOU UP
TTITLE1=Love,Day After Tomorrow
TTITLE2=Secret of my heart
TTITLE3=Stay by my side
TTITLE4=Everything's All Right
TTITLE5=Delicious Way
TTITLE6=Just Like You Smile Baby
TTITLE7=Stepping ∞ Out
TTITLE8=Baby Tonight 〜You and Me〜
TTITLE9=Can't get enough 〜gimme your love〜
TTITLE10=happy days
TTITLE11=This is your life
TTITLE12=Trying To Find My Way
TTITLE13=君との時間
EXTD=YEAR: 2000
EXTT0=
EXTT1=
EXTT2=
EXTT3=
EXTT4=
EXTT5=
EXTT6=
EXTT7=
EXTT8=
EXTT9=
EXTT10=
EXTT11=
EXTT12=
EXTT13=
PLAYORDER=
